<svg xmlns="http://www.w3.org/2000/svg" viewBox="0 0 1003.88 285.41"><title>logo-red</title><g id="Layer_2" data-name="Layer 2"><g id="v4"><g id="script_copy" data-name="script copy"><path d="M600.25,12.5s-32.58,122-45.55,170c-9.71,36-.14,53.19,16.81,53.19,34.28,0,38.44-39.58,44.15-63.93" style="fill:none;stroke:#e35040;stroke-linecap:round;stroke-miterlimit:10;stroke-width:25px"/><line x1="59.59" y1="151.14" x2="3.43" y2="190.32" style="fill:none;stroke:#e35040;stroke-miterlimit:10;stroke-width:12px"/><line x1="998.32" y1="160.53" x2="975.25" y2="217.23" style="fill:none;stroke:#e35040;stroke-miterlimit:10;stroke-width:12px"/><path d="M114.57,235.5S143.37,128,158.62,71.07c8.84-33,31.67-58.36,57.61-58.4,18.55,0,28.88,11.61,36.91,28.89,22.54,48.51,8.63,140.92-37,140.92-45.39,0,28.76-170,91.89-170,29.95,0,39.94,24.73,30.86,58.57-9.25,34.46-37.41,140.85-44.47,164.6-3.88,13-7.23,37.24,17,37.24,25.55,0,28.67-24.89,46.51-90.43" style="fill:none;stroke:#e24d42;stroke-linecap:round;stroke-miterlimit:10;stroke-width:25px"/><path d="M49.52,157.86C134.79,105,72,51.54,113.22,20.93c20.73-15.41,58-.77,45.58,50.14" style="fill:none;stroke:#e35040;stroke-linecap:round;stroke-miterlimit:10;stroke-width:25px"/><path d="M475.44,182.48c-9.6,35.87-45.87,53.19-84.94,53.19-33,0-44.59-33.86-24.14-77.37s48.41-35.81,58.65-29.81c18.22,10.68,16.55,36,7.76,46.57-24.11,29.06-76,18.95-63.7-21.94" style="fill:none;stroke:#e24d42;stroke-linecap:round;stroke-miterlimit:10;stroke-width:25px"/><path d="M845.9,182.48C836.31,218.35,800,235.67,761,235.67c-33,0-44.59-33.86-24.14-77.37s48.42-35.81,58.66-29.81c18.22,10.68,16.55,36,7.76,46.57-24.11,29.06-76,18.95-63.71-21.94" style="fill:none;stroke:#e35040;stroke-linecap:round;stroke-miterlimit:10;stroke-width:25px"/><path d="M553.2,188.14c-15.51,57.87-57.42,46-67.24,40.41-13.83-7.91-17.19-19.75-10.13-46.07,12.23-45.59,39-56.81,54.75-56.81,24.12,0,35.53,14.29,24.12,56.81" style="fill:none;stroke:#e35040;stroke-linecap:round;stroke-miterlimit:10;stroke-width:25px"/><path d="M969.86,14.09s-32.67,121.92-45.54,170c-7,26.15-1.83,53.19,18,53.19,29.25,0,34.84-25.26,34.84-25.26" style="fill:none;stroke:#e35040;stroke-linecap:round;stroke-miterlimit:10;stroke-width:25px"/><path d="M922.81,189.72c-15.5,57.88-57.42,46-67.24,40.41-13.82-7.91-17.19-19.75-10.13-46.06,12.23-45.59,39-56.81,54.75-56.81,24.13,0,35.53,14.28,24.13,56.81" style="fill:none;stroke:#e35040;stroke-linecap:round;stroke-miterlimit:10;stroke-width:25px"/><path d="M702.11,127.26c-29.05,108.41-76.8,108.41-76.8,108.41s-28.79,0,.26-108.41" style="fill:none;stroke:#e35040;stroke-linecap:round;stroke-miterlimit:10;stroke-width:25px"/><path d="M702.11,127.26s-12.35,69.93,24.55,69.93" style="fill:none;stroke:#e35040;stroke-linecap:round;stroke-miterlimit:10;stroke-width:25px"/></g></g></g></svg>